<svg width="16" height="16" viewBox="0 0 16 16" fill="none" xmlns="http://www.w3.org/2000/svg">
<path d="M8.00002 4.00001C8.36702 4.00001 8.72102 4.04801 9.06302 4.14501C9.73068 4.32804 10.3384 4.68363 10.825 5.17602C11.317 5.6628 11.6722 6.27048 11.855 6.93802C11.952 7.27802 12 7.63301 12 8.00001C12 8.36701 11.952 8.72101 11.855 9.06301C11.6729 9.7317 11.3176 10.3405 10.825 10.828C10.3363 11.3177 9.72934 11.6728 9.06302 11.859C8.72002 11.953 8.36702 12 8.00002 12C7.63302 12 7.27902 11.953 6.93702 11.86C6.27022 11.6724 5.66258 11.3171 5.17202 10.828C4.68277 10.3372 4.32747 9.7292 4.14002 9.06202C4.04586 8.71591 3.99877 8.3587 4.00002 8.00001C4.00002 7.63301 4.04702 7.27901 4.14002 6.93701C4.23401 6.60312 4.37081 6.28279 4.54702 5.98402C4.89621 5.39184 5.38907 4.89727 5.98002 4.54601C6.27995 4.37074 6.60174 4.23591 6.93702 4.14501C7.28296 4.04782 7.64069 3.99902 8.00002 4.00001V4.00001Z" fill="#6b6b6b"/>
</svg>
